<?xml version="1.0" encoding="utf-8"?>
<!-- Generator: Adobe Illustrator 18.1.1, SVG Export Plug-In . SVG Version: 6.00 Build 0)  -->
<svg version="1.1" id="Layer_1" xmlns="http://www.w3.org/2000/svg" xmlns:xlink="http://www.w3.org/1999/xlink" x="0px" y="0px"
	 viewBox="-132 223 33.9 22" enable-background="new -132 223 33.9 22" xml:space="preserve">
<path fill="#1A5D1A" stroke="#2D7D2D" stroke-width="1.5" d="M-128,224h26c1.7,0,3,1.3,3,3v14c0,1.7-1.3,3-3,3h-26c-1.7,0-3-1.3-3-3
	v-14C-131,225.3-129.7,224-128,224z"/>
<circle cx="-129" cy="226" r="1.5"/>
<circle cx="-101" cy="226" r="1.5"/>
<circle cx="-129" cy="242" r="1.5"/>
<circle cx="-101" cy="242" r="1.5"/>
<circle cx="-115" cy="226" r="1.2"/>
<circle cx="-115" cy="242" r="1.2"/>
<circle fill="#FFD700" stroke="#FFA500" stroke-width="0.5" cx="-121" cy="234" r="3"/>
<circle fill="#FF4444" stroke="#CC0000" stroke-width="0.5" cx="-113" cy="232" r="3"/>
<circle fill="#4444FF" stroke="#0000CC" stroke-width="0.5" cx="-109" cy="236" r="3"/>
<text transform="matrix(1 0 0 1 -121.8342 236)" font-family="'Arial-BoldMT'" font-size="3">1</text>
<text transform="matrix(1 0 0 1 -113.8342 234)" fill="#FFFFFF" font-family="'Arial-BoldMT'" font-size="3">3</text>
<text transform="matrix(1 0 0 1 -109.8342 238)" fill="#FFFFFF" font-family="'Arial-BoldMT'" font-size="3">2</text>
<line fill="none" stroke="#8B4513" stroke-width="1.5" stroke-linecap="round" x1="-127" y1="230" x2="-103" y2="238"/>
<line fill="none" stroke="#654321" stroke-width="2" stroke-linecap="round" x1="-105" y1="237" x2="-103" y2="238"/>
</svg>
